<svg id="SvgjsSvg1006" width="934.5000610351562" height="1110.25" xmlns="http://www.w3.org/2000/svg" version="1.1" xmlns:xlink="http://www.w3.org/1999/xlink" xmlns:svgjs="http://svgjs.com/svgjs"><defs id="SvgjsDefs1007"><marker id="SvgjsMarker1046" markerWidth="14" markerHeight="10" refX="10" refY="5" viewBox="0 0 14 10" orient="auto" markerUnits="userSpaceOnUse" stroke-dasharray="0,0"><path id="SvgjsPath1047" d="M0,0 L14,5 L0,10 L0,0" fill="#323232" stroke="#323232" stroke-width="1"></path></marker><marker id="SvgjsMarker1050" markerWidth="14" markerHeight="10" refX="10" refY="5" viewBox="0 0 14 10" orient="auto" markerUnits="userSpaceOnUse" stroke-dasharray="0,0"><path id="SvgjsPath1051" d="M0,0 L14,5 L0,10 L0,0" fill="#323232" stroke="#323232" stroke-width="1"></path></marker><marker id="SvgjsMarker1054" markerWidth="14" markerHeight="10" refX="10" refY="5" viewBox="0 0 14 10" orient="auto" markerUnits="userSpaceOnUse" stroke-dasharray="0,0"><path id="SvgjsPath1055" d="M0,0 L14,5 L0,10 L0,0" fill="#323232" stroke="#323232" stroke-width="1"></path></marker><marker id="SvgjsMarker1088" markerWidth="14" markerHeight="10" refX="10" refY="5" viewBox="0 0 14 10" orient="auto" markerUnits="userSpaceOnUse" stroke-dasharray="0,0"><path id="SvgjsPath1089" d="M0,0 L14,5 L0,10 L0,0" fill="#323232" stroke="#323232" stroke-width="1"></path></marker><marker id="SvgjsMarker1092" markerWidth="14" markerHeight="10" refX="10" refY="5" viewBox="0 0 14 10" orient="auto" markerUnits="userSpaceOnUse" stroke-dasharray="0,0"><path id="SvgjsPath1093" d="M0,0 L14,5 L0,10 L0,0" fill="#323232" stroke="#323232" stroke-width="1"></path></marker><marker id="SvgjsMarker1096" markerWidth="14" markerHeight="10" refX="10" refY="5" viewBox="0 0 14 10" orient="auto" markerUnits="userSpaceOnUse" stroke-dasharray="0,0"><path id="SvgjsPath1097" d="M0,0 L14,5 L0,10 L0,0" fill="#323232" stroke="#323232" stroke-width="1"></path></marker><marker id="SvgjsMarker1100" markerWidth="14" markerHeight="10" refX="10" refY="5" viewBox="0 0 14 10" orient="auto" markerUnits="userSpaceOnUse" stroke-dasharray="0,0"><path id="SvgjsPath1101" d="M0,0 L14,5 L0,10 L0,0" fill="#323232" stroke="#323232" stroke-width="1"></path></marker><marker id="SvgjsMarker1104" markerWidth="14" markerHeight="10" refX="10" refY="5" viewBox="0 0 14 10" orient="auto" markerUnits="userSpaceOnUse" stroke-dasharray="0,0"><path id="SvgjsPath1105" d="M0,0 L14,5 L0,10 L0,0" fill="#323232" stroke="#323232" stroke-width="1"></path></marker><marker id="SvgjsMarker1108" markerWidth="14" markerHeight="10" refX="10" refY="5" viewBox="0 0 14 10" orient="auto" markerUnits="userSpaceOnUse" stroke-dasharray="0,0"><path id="SvgjsPath1109" d="M0,0 L14,5 L0,10 L0,0" fill="#323232" stroke="#323232" stroke-width="1"></path></marker><marker id="SvgjsMarker1161" markerWidth="14" markerHeight="10" refX="10" refY="5" viewBox="0 0 14 10" orient="auto" markerUnits="userSpaceOnUse" stroke-dasharray="0,0"><path id="SvgjsPath1162" d="M0,0 L14,5 L0,10 L0,0" fill="#323232" stroke="#323232" stroke-width="1"></path></marker><marker id="SvgjsMarker1165" markerWidth="14" markerHeight="10" refX="10" refY="5" viewBox="0 0 14 10" orient="auto" markerUnits="userSpaceOnUse" stroke-dasharray="0,0"><path id="SvgjsPath1166" d="M0,0 L14,5 L0,10 L0,0" fill="#323232" stroke="#323232" stroke-width="1"></path></marker><marker id="SvgjsMarker1169" markerWidth="14" markerHeight="10" refX="10" refY="5" viewBox="0 0 14 10" orient="auto" markerUnits="userSpaceOnUse" stroke-dasharray="0,0"><path id="SvgjsPath1170" d="M0,0 L14,5 L0,10 L0,0" fill="#323232" stroke="#323232" stroke-width="1"></path></marker><marker id="SvgjsMarker1173" markerWidth="14" markerHeight="10" refX="10" refY="5" viewBox="0 0 14 10" orient="auto" markerUnits="userSpaceOnUse" stroke-dasharray="0,0"><path id="SvgjsPath1174" d="M0,0 L14,5 L0,10 L0,0" fill="#323232" stroke="#323232" stroke-width="1"></path></marker><marker id="SvgjsMarker1177" markerWidth="14" markerHeight="10" refX="10" refY="5" viewBox="0 0 14 10" orient="auto" markerUnits="userSpaceOnUse" stroke-dasharray="0,0"><path id="SvgjsPath1178" d="M0,0 L14,5 L0,10 L0,0" fill="#323232" stroke="#323232" stroke-width="1"></path></marker><marker id="SvgjsMarker1181" markerWidth="14" markerHeight="10" refX="10" refY="5" viewBox="0 0 14 10" orient="auto" markerUnits="userSpaceOnUse" stroke-dasharray="0,0"><path id="SvgjsPath1182" d="M0,0 L14,5 L0,10 L0,0" fill="#323232" stroke="#323232" stroke-width="1"></path></marker><marker id="SvgjsMarker1185" markerWidth="14" markerHeight="10" refX="10" refY="5" viewBox="0 0 14 10" orient="auto" markerUnits="userSpaceOnUse" stroke-dasharray="0,0"><path id="SvgjsPath1186" d="M0,0 L14,5 L0,10 L0,0" fill="#323232" stroke="#323232" stroke-width="1"></path></marker><marker id="SvgjsMarker1189" markerWidth="14" markerHeight="10" refX="10" refY="5" viewBox="0 0 14 10" orient="auto" markerUnits="userSpaceOnUse" stroke-dasharray="0,0"><path id="SvgjsPath1190" d="M0,0 L14,5 L0,10 L0,0" fill="#323232" stroke="#323232" stroke-width="1"></path></marker></defs><g id="SvgjsG1008" transform="translate(24.999984741210938,285.86575836605493)"><path id="SvgjsPath1009" d="M 0 4Q 0 0 4 0L 488.8333282470703 0Q 492.8333282470703 0 492.8333282470703 4L 492.8333282470703 192.7893496619331Q 492.8333282470703 196.7893496619331 488.8333282470703 196.7893496619331L 4 196.7893496619331Q 0 196.7893496619331 0 192.7893496619331Z" stroke="rgba(50,50,50,1)" stroke-width="2" fill-opacity="1" fill="#ffffff"></path><g id="SvgjsG1010"><text id="SvgjsText1011" font-family="微软雅黑" text-anchor="middle" font-size="13px" width="483px" fill="#323232" font-weight="400" align="middle" lineHeight="125%" anchor="middle" family="微软雅黑" size="13px" weight="400" font-style="" opacity="1" y="4.431382118709507" transform="rotate(0)"><tspan id="SvgjsTspan1012" dy="16" x="246.5"><tspan id="SvgjsTspan1013" style="text-decoration:;">axios(config) - v1.2.0</tspan></tspan></text></g></g><g id="SvgjsG1014" transform="translate(159.6666488647461,330.82640107472736)"><path id="SvgjsPath1015" d="M 0 4Q 0 0 4 0L 220 0Q 224 0 224 4L 224 44.416656494140625Q 224 48.416656494140625 220 48.416656494140625L 4 48.416656494140625Q 0 48.416656494140625 0 44.416656494140625Z" stroke="rgba(50,50,50,1)" stroke-width="2" fill-opacity="1" fill="#ffffff"></path><g id="SvgjsG1016"><text id="SvgjsText1017" font-family="微软雅黑" text-anchor="middle" font-size="13px" width="204px" fill="#323232" font-weight="400" align="middle" lineHeight="125%" anchor="middle" family="微软雅黑" size="13px" weight="400" font-style="" opacity="1" y="13.583328247070312" transform="rotate(0)"><tspan id="SvgjsTspan1018" dy="16" x="112"><tspan id="SvgjsTspan1019" style="text-decoration:;">Axios.prototype.request(config)</tspan></tspan></text></g></g><g id="SvgjsG1020" transform="translate(40.166648864746094,427.8264325459798)"><path id="SvgjsPath1021" d="M 0 4Q 0 0 4 0L 139.5 0Q 143.5 0 143.5 4L 143.5 35.58327293395996Q 143.5 39.58327293395996 139.5 39.58327293395996L 4 39.58327293395996Q 0 39.58327293395996 0 35.58327293395996Z" stroke="rgba(50,50,50,1)" stroke-width="2" fill-opacity="1" fill="#ffffff"></path><g id="SvgjsG1022"><text id="SvgjsText1023" font-family="微软雅黑" text-anchor="middle" font-size="13px" width="124px" fill="#323232" font-weight="400" align="middle" lineHeight="125%" anchor="middle" family="微软雅黑" size="13px" weight="400" font-style="" opacity="1" y="9.16663646697998" transform="rotate(0)"><tspan id="SvgjsTspan1024" dy="16" x="72"><tspan id="SvgjsTspan1025" style="text-decoration:;">Axios.prototype</tspan></tspan></text></g></g><g id="SvgjsG1026" transform="translate(199.1874828338623,427.61546798547096)"><path id="SvgjsPath1027" d="M 0 4Q 0 0 4 0L 140.45833206176758 0Q 144.45833206176758 0 144.45833206176758 4L 144.45833206176758 36.00520205497753Q 144.45833206176758 40.00520205497753 140.45833206176758 40.00520205497753L 4 40.00520205497753Q 0 40.00520205497753 0 36.00520205497753Z" stroke="rgba(50,50,50,1)" stroke-width="2" fill-opacity="1" fill="#ffffff"></path><g id="SvgjsG1028"><text id="SvgjsText1029" font-family="微软雅黑" text-anchor="middle" font-size="13px" width="125px" fill="#323232" font-weight="400" align="middle" lineHeight="125%" anchor="middle" family="微软雅黑" size="13px" weight="400" font-style="" opacity="1" y="9.377601027488765" transform="rotate(0)"><tspan id="SvgjsTspan1030" dy="16" x="72.5"><tspan id="SvgjsTspan1031" style="text-decoration:;">new Axios(config)</tspan></tspan></text></g></g><g id="SvgjsG1032" transform="translate(359.1666488647461,427.40972932179767)"><path id="SvgjsPath1033" d="M 0 4Q 0 0 4 0L 140 0Q 144 0 144 4L 144 36.41667938232422Q 144 40.41667938232422 140 40.41667938232422L 4 40.41667938232422Q 0 40.41667938232422 0 36.41667938232422Z" stroke="rgba(50,50,50,1)" stroke-width="2" fill-opacity="1" fill="#ffffff"></path><g id="SvgjsG1034"><text id="SvgjsText1035" font-family="微软雅黑" text-anchor="middle" font-size="13px" width="124px" fill="#323232" font-weight="400" align="middle" lineHeight="125%" anchor="middle" family="微软雅黑" size="13px" weight="400" font-style="" opacity="1" y="9.58333969116211" transform="rotate(0)"><tspan id="SvgjsTspan1036" dy="16" x="72"><tspan id="SvgjsTspan1037" style="text-decoration:;">create</tspan></tspan></text></g></g><g id="SvgjsG1038" transform="translate(621.4999821980797,25.010414123535128)"><path id="SvgjsPath1039" d="M 0 4Q 0 0 4 0L 156.33331298828125 0Q 160.33331298828125 0 160.33331298828125 4L 160.33331298828125 44.0000114440918Q 160.33331298828125 48.0000114440918 156.33331298828125 48.0000114440918L 4 48.0000114440918Q 0 48.0000114440918 0 44.0000114440918Z" stroke="rgba(50,50,50,1)" stroke-width="2" fill-opacity="1" fill="#ffffff"></path><g id="SvgjsG1040"><text id="SvgjsText1041" font-family="微软雅黑" text-anchor="middle" font-size="13px" width="141px" fill="#323232" font-weight="400" align="middle" lineHeight="125%" anchor="middle" family="微软雅黑" size="13px" weight="400" font-style="" opacity="1" y="13.375005722045898" transform="rotate(0)"><tspan id="SvgjsTspan1042" dy="16" x="80.5"><tspan id="SvgjsTspan1043" style="text-decoration:;">Axios</tspan></tspan></text></g></g><g id="SvgjsG1044"><path id="SvgjsPath1045" d="M271.4166488647461 426.61546798547096L271.4166488647461 403.42926277716947L271.6666488647461 403.42926277716947L271.6666488647461 382.843057568868" stroke="#323232" stroke-width="2" fill="none" marker-end="url(#SvgjsMarker1046)"></path></g><g id="SvgjsG1048"><path id="SvgjsPath1049" d="M111.9166488647461 426.8264325459798L111.9166488647461 403.5347450574239L271.6666488647461 403.5347450574239L271.6666488647461 382.843057568868" stroke="#323232" stroke-width="2" fill="none" marker-end="url(#SvgjsMarker1050)"></path></g><g id="SvgjsG1052"><path id="SvgjsPath1053" d="M431.1666488647461 426.40972932179767L431.1666488647461 403.3263934453328L271.6666488647461 403.3263934453328L271.6666488647461 382.843057568868" stroke="#323232" stroke-width="2" fill="none" marker-end="url(#SvgjsMarker1054)"></path></g><g id="SvgjsG1056" transform="translate(621.4999821980797,295.7604217529298)"><path id="SvgjsPath1057" d="M 0 4Q 0 0 4 0L 156.33331298828125 0Q 160.33331298828125 0 160.33331298828125 4L 160.33331298828125 44.08332824707031Q 160.33331298828125 48.08332824707031 156.33331298828125 48.08332824707031L 4 48.08332824707031Q 0 48.08332824707031 0 44.08332824707031Z" stroke="rgba(50,50,50,1)" stroke-width="2" fill-opacity="1" fill="#ffffff"></path><g id="SvgjsG1058"><text id="SvgjsText1059" font-family="微软雅黑" text-anchor="middle" font-size="13px" width="141px" fill="#323232" font-weight="400" align="middle" lineHeight="125%" anchor="middle" family="微软雅黑" size="13px" weight="400" font-style="" opacity="1" y="13.416664123535156" transform="rotate(0)"><tspan id="SvgjsTspan1060" dy="16" x="80.5"><tspan id="SvgjsTspan1061" style="text-decoration:;">CanceledError/Cancel</tspan></tspan></text></g></g><g id="SvgjsG1062" transform="translate(621.4999821980797,424.84375762939464)"><path id="SvgjsPath1063" d="M 0 4Q 0 0 4 0L 156.33331298828125 0Q 160.33331298828125 0 160.33331298828125 4L 160.33331298828125 43.91668701171875Q 160.33331298828125 47.91668701171875 156.33331298828125 47.91668701171875L 4 47.91668701171875Q 0 47.91668701171875 0 43.91668701171875Z" stroke="rgba(50,50,50,1)" stroke-width="2" fill-opacity="1" fill="#ffffff"></path><g id="SvgjsG1064"><text id="SvgjsText1065" font-family="微软雅黑" text-anchor="middle" font-size="13px" width="141px" fill="#323232" font-weight="400" align="middle" lineHeight="125%" anchor="middle" family="微软雅黑" size="13px" weight="400" font-style="" opacity="1" y="13.333343505859375" transform="rotate(0)"><tspan id="SvgjsTspan1066" dy="16" x="80.5"><tspan id="SvgjsTspan1067" style="text-decoration:;">isCancel</tspan></tspan></text></g></g><g id="SvgjsG1068" transform="translate(621.4999821980797,808.8411923646929)"><path id="SvgjsPath1069" d="M 0 4Q 0 0 4 0L 156.33331298828125 0Q 160.33331298828125 0 160.33331298828125 4L 160.33331298828125 44.291669845581055Q 160.33331298828125 48.291669845581055 156.33331298828125 48.291669845581055L 4 48.291669845581055Q 0 48.291669845581055 0 44.291669845581055Z" stroke="rgba(50,50,50,1)" stroke-width="2" fill-opacity="1" fill="#ffffff"></path><g id="SvgjsG1070"><text id="SvgjsText1071" font-family="微软雅黑" text-anchor="middle" font-size="13px" width="141px" fill="#323232" font-weight="400" align="middle" lineHeight="125%" anchor="middle" family="微软雅黑" size="13px" weight="400" font-style="" opacity="1" y="13.520834922790527" transform="rotate(0)"><tspan id="SvgjsTspan1072" dy="16" x="80.5"><tspan id="SvgjsTspan1073" style="text-decoration:;">VERSION</tspan></tspan></text></g></g><g id="SvgjsG1074" transform="translate(621.4999821980797,888.9427769184115)"><path id="SvgjsPath1075" d="M 0 4Q 0 0 4 0L 156.33331298828125 0Q 160.33331298828125 0 160.33331298828125 4L 160.33331298828125 43.749996185302734Q 160.33331298828125 47.749996185302734 156.33331298828125 47.749996185302734L 4 47.749996185302734Q 0 47.749996185302734 0 43.749996185302734Z" stroke="rgba(50,50,50,1)" stroke-width="2" fill-opacity="1" fill="#ffffff"></path><g id="SvgjsG1076"><text id="SvgjsText1077" font-family="微软雅黑" text-anchor="middle" font-size="13px" width="141px" fill="#323232" font-weight="400" align="middle" lineHeight="125%" anchor="middle" family="微软雅黑" size="13px" weight="400" font-style="" opacity="1" y="13.249998092651367" transform="rotate(0)"><tspan id="SvgjsTspan1078" dy="16" x="80.5"><tspan id="SvgjsTspan1079" style="text-decoration:;">default</tspan></tspan></text></g></g><g id="SvgjsG1080" transform="translate(621.4999821980797,360.09375762939464)"><path id="SvgjsPath1081" d="M 0 4Q 0 0 4 0L 156.33331298828125 0Q 160.33331298828125 0 160.33331298828125 4L 160.33331298828125 44.333351135253906Q 160.33331298828125 48.333351135253906 156.33331298828125 48.333351135253906L 4 48.333351135253906Q 0 48.333351135253906 0 44.333351135253906Z" stroke="rgba(50,50,50,1)" stroke-width="2" fill-opacity="1" fill="#ffffff"></path><g id="SvgjsG1082"><text id="SvgjsText1083" font-family="微软雅黑" text-anchor="middle" font-size="13px" width="141px" fill="#323232" font-weight="400" align="middle" lineHeight="125%" anchor="middle" family="微软雅黑" size="13px" weight="400" font-style="" opacity="1" y="13.541675567626953" transform="rotate(0)"><tspan id="SvgjsTspan1084" dy="16" x="80.5"><tspan id="SvgjsTspan1085" style="text-decoration:;">CancelToken</tspan></tspan></text></g></g><g id="SvgjsG1086"><path id="SvgjsPath1087" d="M620.4999821980797 49.010419845581026L569.6666475931804 49.010419845581026L569.6666475931804 384.2604331970215L521.4333129882813 384.2604331970215" stroke="#323232" stroke-width="2" fill="none" marker-end="url(#SvgjsMarker1088)"></path></g><g id="SvgjsG1090"><path id="SvgjsPath1091" d="M620.4999821980797 319.80208587646496L569.6666475931804 319.80208587646496L569.6666475931804 384.2604331970215L521.4333129882813 384.2604331970215" stroke="#323232" stroke-width="2" fill="none" marker-end="url(#SvgjsMarker1092)"></path></g><g id="SvgjsG1094"><path id="SvgjsPath1095" d="M620.4999821980797 384.2604331970216L569.6666475931804 384.2604331970216L569.6666475931804 384.2604331970215L521.4333129882813 384.2604331970215" stroke="#323232" stroke-width="2" fill="none" marker-end="url(#SvgjsMarker1096)"></path></g><g id="SvgjsG1098"><path id="SvgjsPath1099" d="M620.4999821980797 448.802101135254L569.6666475931804 448.802101135254L569.6666475931804 384.2604331970215L521.4333129882813 384.2604331970215" stroke="#323232" stroke-width="2" fill="none" marker-end="url(#SvgjsMarker1100)"></path></g><g id="SvgjsG1102"><path id="SvgjsPath1103" d="M620.4999821980797 832.9870272874834L569.6666475931804 832.9870272874834L569.6666475931804 384.2604331970215L521.4333129882813 384.2604331970215" stroke="#323232" stroke-width="2" fill="none" marker-end="url(#SvgjsMarker1104)"></path></g><g id="SvgjsG1106"><path id="SvgjsPath1107" d="M620.4999821980797 912.8177750110628L569.6666475931804 912.8177750110628L569.6666475931804 384.2604331970215L521.4333129882813 384.2604331970215" stroke="#323232" stroke-width="2" fill="none" marker-end="url(#SvgjsMarker1108)"></path></g><g id="SvgjsG1110" transform="translate(797.49998219808,295.7604217529298)"><path id="SvgjsPath1111" d="M 0 177.0000228881836Q 9 177.0000228881836 9 168.0000228881836L 9 97.5000114440918Q 9 88.5000114440918 22 88.5000114440918Q 9 88.5000114440918 9 79.5000114440918L 9 9Q 9 0 0 0" stroke="rgba(50,50,50,1)" stroke-width="2" fill="none"></path><path id="SvgjsPath1112" d="M 0 0L 111.5 0L 111.5 177.0000228881836L 0 177.0000228881836Z" stroke="none" fill="none"></path><g id="SvgjsG1113"><text id="SvgjsText1114" font-family="微软雅黑" text-anchor="start" font-size="13px" width="85px" fill="#323232" font-weight="400" align="middle" lineHeight="125%" anchor="start" family="微软雅黑" size="13px" weight="400" font-style="" opacity="1" y="77.8750114440918" transform="rotate(0)"><tspan id="SvgjsTspan1115" dy="16" x="27"><tspan id="SvgjsTspan1116" style="text-decoration:;">取消请求相关</tspan></tspan></text></g></g><g id="SvgjsG1117" transform="translate(621.4999821980797,152.6770782470703)"><path id="SvgjsPath1118" d="M 0 4Q 0 0 4 0L 156.33331298828125 0Q 160.33331298828125 0 160.33331298828125 4L 160.33331298828125 43.66667938232422Q 160.33331298828125 47.66667938232422 156.33331298828125 47.66667938232422L 4 47.66667938232422Q 0 47.66667938232422 0 43.66667938232422Z" stroke="rgba(50,50,50,1)" stroke-width="2" fill-opacity="1" fill="#ffffff"></path><g id="SvgjsG1119"><text id="SvgjsText1120" font-family="微软雅黑" text-anchor="middle" font-size="13px" width="141px" fill="#323232" font-weight="400" align="middle" lineHeight="125%" anchor="middle" family="微软雅黑" size="13px" weight="400" font-style="" opacity="1" y="13.20833969116211" transform="rotate(0)"><tspan id="SvgjsTspan1121" dy="16" x="80.5"><tspan id="SvgjsTspan1122" style="text-decoration:;">AxiosError</tspan></tspan></text></g></g><g id="SvgjsG1123" transform="translate(621.4999821980797,216.010410308838)"><path id="SvgjsPath1124" d="M 0 4Q 0 0 4 0L 156.33331298828125 0Q 160.33331298828125 0 160.33331298828125 4L 160.33331298828125 43.5000114440918Q 160.33331298828125 47.5000114440918 156.33331298828125 47.5000114440918L 4 47.5000114440918Q 0 47.5000114440918 0 43.5000114440918Z" stroke="rgba(50,50,50,1)" stroke-width="2" fill-opacity="1" fill="#ffffff"></path><g id="SvgjsG1125"><text id="SvgjsText1126" font-family="微软雅黑" text-anchor="middle" font-size="13px" width="141px" fill="#323232" font-weight="400" align="middle" lineHeight="125%" anchor="middle" family="微软雅黑" size="13px" weight="400" font-style="" opacity="1" y="13.125005722045898" transform="rotate(0)"><tspan id="SvgjsTspan1127" dy="16" x="80.5"><tspan id="SvgjsTspan1128" style="text-decoration:;">isAxiosError</tspan></tspan></text></g></g><g id="SvgjsG1129" transform="translate(621.4999821980797,88.67707824707031)"><path id="SvgjsPath1130" d="M 0 4Q 0 0 4 0L 156.33331298828125 0Q 160.33331298828125 0 160.33331298828125 4L 160.33331298828125 44.33334732055664Q 160.33331298828125 48.33334732055664 156.33331298828125 48.33334732055664L 4 48.33334732055664Q 0 48.33334732055664 0 44.33334732055664Z" stroke="rgba(50,50,50,1)" stroke-width="2" fill-opacity="1" fill="#ffffff"></path><g id="SvgjsG1131"><text id="SvgjsText1132" font-family="微软雅黑" text-anchor="middle" font-size="13px" width="141px" fill="#323232" font-weight="400" align="middle" lineHeight="125%" anchor="middle" family="微软雅黑" size="13px" weight="400" font-style="" opacity="1" y="13.54167366027832" transform="rotate(0)"><tspan id="SvgjsTspan1133" dy="16" x="80.5"><tspan id="SvgjsTspan1134" style="text-decoration:;">AxiosHeaders</tspan></tspan></text></g></g><g id="SvgjsG1135" transform="translate(621.4999821980797,504.8802320957186)"><path id="SvgjsPath1136" d="M 0 4Q 0 0 4 0L 156.33331298828125 0Q 160.33331298828125 0 160.33331298828125 4L 160.33331298828125 43.82292985916138Q 160.33331298828125 47.82292985916138 156.33331298828125 47.82292985916138L 4 47.82292985916138Q 0 47.82292985916138 0 43.82292985916138Z" stroke="rgba(50,50,50,1)" stroke-width="2" fill-opacity="1" fill="#ffffff"></path><g id="SvgjsG1137"><text id="SvgjsText1138" font-family="微软雅黑" text-anchor="middle" font-size="13px" width="141px" fill="#323232" font-weight="400" align="middle" lineHeight="125%" anchor="middle" family="微软雅黑" size="13px" weight="400" font-style="" opacity="1" y="13.286464929580688" transform="rotate(0)"><tspan id="SvgjsTspan1139" dy="16" x="80.5"><tspan id="SvgjsTspan1140" style="text-decoration:;">toFormData</tspan></tspan></text></g></g><g id="SvgjsG1141" transform="translate(621.4999821980797,568.8802320957186)"><path id="SvgjsPath1142" d="M 0 4Q 0 0 4 0L 156.33331298828125 0Q 160.33331298828125 0 160.33331298828125 4L 160.33331298828125 44.416690826416016Q 160.33331298828125 48.416690826416016 156.33331298828125 48.416690826416016L 4 48.416690826416016Q 0 48.416690826416016 0 44.416690826416016Z" stroke="rgba(50,50,50,1)" stroke-width="2" fill-opacity="1" fill="#ffffff"></path><g id="SvgjsG1143"><text id="SvgjsText1144" font-family="微软雅黑" text-anchor="middle" font-size="13px" width="141px" fill="#323232" font-weight="400" align="middle" lineHeight="125%" anchor="middle" family="微软雅黑" size="13px" weight="400" font-style="" opacity="1" y="13.583345413208008" transform="rotate(0)"><tspan id="SvgjsTspan1145" dy="16" x="80.5"><tspan id="SvgjsTspan1146" style="text-decoration:;">formToJSON</tspan></tspan></text></g></g><g id="SvgjsG1147" transform="translate(621.4999821980797,649.2396402359011)"><path id="SvgjsPath1148" d="M 0 4Q 0 0 4 0L 156.33331298828125 0Q 160.33331298828125 0 160.33331298828125 4L 160.33331298828125 43.854180335998535Q 160.33331298828125 47.854180335998535 156.33331298828125 47.854180335998535L 4 47.854180335998535Q 0 47.854180335998535 0 43.854180335998535Z" stroke="rgba(50,50,50,1)" stroke-width="2" fill-opacity="1" fill="#ffffff"></path><g id="SvgjsG1149"><text id="SvgjsText1150" font-family="微软雅黑" text-anchor="middle" font-size="13px" width="141px" fill="#323232" font-weight="400" align="middle" lineHeight="125%" anchor="middle" family="微软雅黑" size="13px" weight="400" font-style="" opacity="1" y="13.302090167999268" transform="rotate(0)"><tspan id="SvgjsTspan1151" dy="16" x="80.5"><tspan id="SvgjsTspan1152" style="text-decoration:;">spread</tspan></tspan></text></g></g><g id="SvgjsG1153" transform="translate(621.4999821980797,728.9480028152468)"><path id="SvgjsPath1154" d="M 0 4Q 0 0 4 0L 156.33331298828125 0Q 160.33331298828125 0 160.33331298828125 4L 160.33331298828125 44.083274841308594Q 160.33331298828125 48.083274841308594 156.33331298828125 48.083274841308594L 4 48.083274841308594Q 0 48.083274841308594 0 44.083274841308594Z" stroke="rgba(50,50,50,1)" stroke-width="2" fill-opacity="1" fill="#ffffff"></path><g id="SvgjsG1155"><text id="SvgjsText1156" font-family="微软雅黑" text-anchor="middle" font-size="13px" width="141px" fill="#323232" font-weight="400" align="middle" lineHeight="125%" anchor="middle" family="微软雅黑" size="13px" weight="400" font-style="" opacity="1" y="13.416637420654297" transform="rotate(0)"><tspan id="SvgjsTspan1157" dy="16" x="80.5"><tspan id="SvgjsTspan1158" style="text-decoration:;">all</tspan></tspan></text></g></g><g id="SvgjsG1159"><path id="SvgjsPath1160" d="M620.4999821980797 112.84375190734863L569.6666475931804 112.84375190734863L569.6666475931804 384.2604331970215L521.4333129882813 384.2604331970215" stroke="#323232" stroke-width="2" fill="none" marker-end="url(#SvgjsMarker1161)"></path></g><g id="SvgjsG1163"><path id="SvgjsPath1164" d="M620.4999821980797 176.51041793823242L569.6666475931804 176.51041793823242L569.6666475931804 384.2604331970215L521.4333129882813 384.2604331970215" stroke="#323232" stroke-width="2" fill="none" marker-end="url(#SvgjsMarker1165)"></path></g><g id="SvgjsG1167"><path id="SvgjsPath1168" d="M620.4999821980797 239.7604160308839L569.6666475931804 239.7604160308839L569.6666475931804 384.2604331970215L521.4333129882813 384.2604331970215" stroke="#323232" stroke-width="2" fill="none" marker-end="url(#SvgjsMarker1169)"></path></g><g id="SvgjsG1171"><path id="SvgjsPath1172" d="M620.4999821980797 528.7916970252993L569.6666475931804 528.7916970252993L569.6666475931804 384.2604331970215L521.4333129882813 384.2604331970215" stroke="#323232" stroke-width="2" fill="none" marker-end="url(#SvgjsMarker1173)"></path></g><g id="SvgjsG1175"><path id="SvgjsPath1176" d="M620.4999821980797 593.0885775089266L569.6666475931804 593.0885775089266L569.6666475931804 384.2604331970215L521.4333129882813 384.2604331970215" stroke="#323232" stroke-width="2" fill="none" marker-end="url(#SvgjsMarker1177)"></path></g><g id="SvgjsG1179"><path id="SvgjsPath1180" d="M620.4999821980797 673.1667304039004L569.6666475931804 673.1667304039004L569.6666475931804 384.2604331970215L521.4333129882813 384.2604331970215" stroke="#323232" stroke-width="2" fill="none" marker-end="url(#SvgjsMarker1181)"></path></g><g id="SvgjsG1183"><path id="SvgjsPath1184" d="M620.4999821980797 752.9896402359011L569.6666475931804 752.9896402359011L569.6666475931804 384.2604331970215L521.4333129882813 384.2604331970215" stroke="#323232" stroke-width="2" fill="none" marker-end="url(#SvgjsMarker1185)"></path></g><g id="SvgjsG1187"><path id="SvgjsPath1188" d="M700.817926577393 937.2216282314622C 477.6851221720377 1085.5844980875652 271.4166488647461 732.859905761032 271.4728200336249 486.2546697790609" stroke="#323232" stroke-width="2" fill="none" marker-end="url(#SvgjsMarker1189)"></path></g></svg>